<svg width="1728" height="1117" viewBox="0 0 1728 1117" fill="none" xmlns="http://www.w3.org/2000/svg">
<rect width="1728" height="1117" fill="#FEFAE0"/>
<g clip-path="url(#clip0_77_8)">
<path d="M373.911 175.282C373.911 175.282 294.445 98.6259 336.054 77.8255C356.02 67.8426 367.044 79.9163 372.87 92.3453C379.184 80.0816 391.076 67.479 411.777 77.8255C453.386 98.6259 373.911 175.282 373.911 175.282Z" fill="#DF646E"/>
</g>
<g clip-path="url(#clip1_77_8)">
<path d="M547.787 175.925C547.787 175.925 520.482 68.9415 566.812 73.1192C589.045 75.1222 592.076 91.1881 590.499 104.824C602.316 97.7102 619.057 93.2405 631.229 112.924C655.691 152.491 547.787 175.925 547.787 175.925Z" fill="#DF646E"/>
<path d="M513.911 175.104C513.911 175.104 434.445 98.4472 476.054 77.6468C496.02 67.6639 507.044 79.7376 512.87 92.1666C519.184 79.9029 531.076 67.3003 551.777 77.6468C593.386 98.4472 513.911 175.104 513.911 175.104Z" fill="#ECAA87"/>
</g>
<g clip-path="url(#clip2_77_8)">
<path d="M782.705 121.853L728.853 68L675 121.853L728.853 175.705L782.705 121.853Z" fill="#DF646E"/>
</g>
<g clip-path="url(#clip3_77_8)">
<path d="M873.599 122.216L927.451 176.069L981.304 122.216L927.451 68.3638L873.599 122.216Z" stroke="#405B77" stroke-width="9" stroke-miterlimit="10"/>
<path d="M950.526 152.995H901.366" stroke="#405B77" stroke-width="3" stroke-miterlimit="10"/>
<path d="M971.158 135.948H888.557" stroke="#405B77" stroke-width="3" stroke-miterlimit="10"/>
<path d="M977.989 118.902H876.913" stroke="#405B77" stroke-width="3" stroke-miterlimit="10"/>
<path d="M958.721 101.855H893.96" stroke="#405B77" stroke-width="3" stroke-miterlimit="10"/>
<path d="M941.273 84.8088H911.006" stroke="#405B77" stroke-width="3" stroke-miterlimit="10"/>
<path d="M860.105 175.223H862.755C883.247 175.223 899.859 158.611 899.859 138.118V106.315C899.859 85.8225 883.247 69.2104 862.755 69.2104H860.105C839.613 69.2104 823 85.8225 823 106.315V138.118C823 158.611 839.613 175.223 860.105 175.223Z" fill="#DF646E"/>
</g>
<g clip-path="url(#clip4_77_8)">
<path d="M1135.71 126.853L1081.85 73L1028 126.853L1081.85 180.705L1135.71 126.853Z" fill="#ECAA87"/>
</g>
<g clip-path="url(#clip5_77_8)">
<path d="M1230.41 177.782C1230.41 177.782 1150.95 101.126 1192.55 80.3255C1212.52 70.3426 1223.54 82.4163 1229.37 94.8453C1235.68 82.5816 1247.58 69.979 1268.28 80.3255C1309.89 101.126 1230.41 177.782 1230.41 177.782Z" stroke="#405B77" stroke-width="9" stroke-linecap="round" stroke-linejoin="round"/>
<path d="M1182.42 90.094H1278.41" stroke="#405B77" stroke-width="3" stroke-miterlimit="10"/>
<path d="M1182.42 107.418H1278.41" stroke="#405B77" stroke-width="3" stroke-miterlimit="10"/>
<path d="M1188.51 124.742H1272.32" stroke="#405B77" stroke-width="3" stroke-miterlimit="10"/>
<path d="M1199.52 142.066H1261.3" stroke="#405B77" stroke-width="3" stroke-miterlimit="10"/>
<path d="M1213.59 159.391H1246" stroke="#405B77" stroke-width="3" stroke-miterlimit="10"/>
</g>
<g clip-path="url(#clip6_77_8)">
<path d="M1369.25 71.5H1366.6C1346.11 71.5 1329.5 88.1122 1329.5 108.604V140.408C1329.5 160.9 1346.11 177.512 1366.6 177.512H1369.25C1389.75 177.512 1406.36 160.9 1406.36 140.408V108.604C1406.36 88.1122 1389.75 71.5 1369.25 71.5Z" stroke="#405B77" stroke-width="9" stroke-linecap="round" stroke-linejoin="round"/>
<path d="M1335.24 88.79H1400.62" stroke="#405B77" stroke-width="3" stroke-miterlimit="10"/>
<path d="M1332.37 106.114H1403.34" stroke="#405B77" stroke-width="3" stroke-miterlimit="10"/>
<path d="M1332.37 123.438H1403.34" stroke="#405B77" stroke-width="3" stroke-miterlimit="10"/>
<path d="M1331.19 140.763H1403.34" stroke="#405B77" stroke-width="3" stroke-miterlimit="10"/>
<path d="M1335.24 158.087H1400.62" stroke="#405B77" stroke-width="3" stroke-miterlimit="10"/>
</g>
<g clip-path="url(#clip7_77_8)">
<path d="M1490.75 73.8464H1488.1C1467.61 73.8464 1451 90.4586 1451 110.951V142.754C1451 163.247 1467.61 179.859 1488.1 179.859H1490.75C1511.25 179.859 1527.86 163.247 1527.86 142.754V110.951C1527.86 90.4586 1511.25 73.8464 1490.75 73.8464Z" fill="#ECAA87"/>
<path d="M1602.01 126.853L1548.16 73L1494.31 126.853L1548.16 180.705L1602.01 126.853Z" fill="#DF646E"/>
</g>
<g clip-path="url(#clip8_77_8)">
<path d="M283.775 124.217L229.923 70.364L176.07 124.217L229.923 178.069L283.775 124.217Z" fill="#ECAA87"/>
<path d="M132.364 124.216L186.217 178.069L240.069 124.216L186.217 70.3638L132.364 124.216Z" stroke="#405B77" stroke-width="9" stroke-miterlimit="10"/>
<path d="M209.291 154.995H160.132" stroke="#405B77" stroke-width="3" stroke-miterlimit="10"/>
<path d="M229.923 137.948H147.322" stroke="#405B77" stroke-width="3" stroke-miterlimit="10"/>
<path d="M236.754 120.902H135.679" stroke="#405B77" stroke-width="3" stroke-miterlimit="10"/>
<path d="M217.487 103.855H152.726" stroke="#405B77" stroke-width="3" stroke-miterlimit="10"/>
<path d="M200.039 86.8088H169.771" stroke="#405B77" stroke-width="3" stroke-miterlimit="10"/>
</g>
<g clip-path="url(#clip9_77_8)">
<path d="M373.911 1028.28C373.911 1028.28 294.445 951.626 336.054 930.826C356.02 920.843 367.044 932.916 372.87 945.345C379.184 933.082 391.076 920.479 411.777 930.826C453.386 951.626 373.911 1028.28 373.911 1028.28Z" fill="#DF646E"/>
</g>
<g clip-path="url(#clip10_77_8)">
<path d="M547.787 1028.93C547.787 1028.93 520.482 921.941 566.812 926.119C589.045 928.122 592.076 944.188 590.499 957.824C602.316 950.71 619.057 946.24 631.229 965.924C655.691 1005.49 547.787 1028.93 547.787 1028.93Z" fill="#DF646E"/>
<path d="M513.911 1028.1C513.911 1028.1 434.445 951.447 476.054 930.647C496.02 920.664 507.044 932.738 512.87 945.167C519.184 932.903 531.076 920.3 551.777 930.647C593.386 951.447 513.911 1028.1 513.911 1028.1Z" fill="#ECAA87"/>
</g>
<g clip-path="url(#clip11_77_8)">
<path d="M782.705 974.853L728.853 921L675 974.853L728.853 1028.71L782.705 974.853Z" fill="#DF646E"/>
</g>
<g clip-path="url(#clip12_77_8)">
<path d="M873.599 975.216L927.451 1029.07L981.304 975.216L927.451 921.364L873.599 975.216Z" stroke="#405B77" stroke-width="9" stroke-miterlimit="10"/>
<path d="M950.526 1005.99H901.366" stroke="#405B77" stroke-width="3" stroke-miterlimit="10"/>
<path d="M971.158 988.948H888.557" stroke="#405B77" stroke-width="3" stroke-miterlimit="10"/>
<path d="M977.989 971.901H876.913" stroke="#405B77" stroke-width="3" stroke-miterlimit="10"/>
<path d="M958.721 954.855H893.96" stroke="#405B77" stroke-width="3" stroke-miterlimit="10"/>
<path d="M941.273 937.809H911.006" stroke="#405B77" stroke-width="3" stroke-miterlimit="10"/>
<path d="M860.105 1028.22H862.755C883.247 1028.22 899.859 1011.61 899.859 991.118V959.315C899.859 938.823 883.247 922.21 862.755 922.21H860.105C839.613 922.21 823 938.823 823 959.315V991.118C823 1011.61 839.613 1028.22 860.105 1028.22Z" fill="#DF646E"/>
</g>
<g clip-path="url(#clip13_77_8)">
<path d="M1135.71 979.853L1081.85 926L1028 979.853L1081.85 1033.71L1135.71 979.853Z" fill="#ECAA87"/>
</g>
<g clip-path="url(#clip14_77_8)">
<path d="M1230.41 1030.78C1230.41 1030.78 1150.95 954.126 1192.55 933.326C1212.52 923.343 1223.54 935.416 1229.37 947.845C1235.68 935.582 1247.58 922.979 1268.28 933.326C1309.89 954.126 1230.41 1030.78 1230.41 1030.78Z" stroke="#405B77" stroke-width="9" stroke-linecap="round" stroke-linejoin="round"/>
<path d="M1182.42 943.094H1278.41" stroke="#405B77" stroke-width="3" stroke-miterlimit="10"/>
<path d="M1182.42 960.418H1278.41" stroke="#405B77" stroke-width="3" stroke-miterlimit="10"/>
<path d="M1188.51 977.742H1272.32" stroke="#405B77" stroke-width="3" stroke-miterlimit="10"/>
<path d="M1199.52 995.066H1261.3" stroke="#405B77" stroke-width="3" stroke-miterlimit="10"/>
<path d="M1213.59 1012.39H1246" stroke="#405B77" stroke-width="3" stroke-miterlimit="10"/>
</g>
<g clip-path="url(#clip15_77_8)">
<path d="M1369.25 924.5H1366.6C1346.11 924.5 1329.5 941.112 1329.5 961.604V993.408C1329.5 1013.9 1346.11 1030.51 1366.6 1030.51H1369.25C1389.75 1030.51 1406.36 1013.9 1406.36 993.408V961.604C1406.36 941.112 1389.75 924.5 1369.25 924.5Z" stroke="#405B77" stroke-width="9" stroke-linecap="round" stroke-linejoin="round"/>
<path d="M1335.24 941.79H1400.62" stroke="#405B77" stroke-width="3" stroke-miterlimit="10"/>
<path d="M1332.37 959.114H1403.34" stroke="#405B77" stroke-width="3" stroke-miterlimit="10"/>
<path d="M1332.37 976.438H1403.34" stroke="#405B77" stroke-width="3" stroke-miterlimit="10"/>
<path d="M1331.19 993.763H1403.34" stroke="#405B77" stroke-width="3" stroke-miterlimit="10"/>
<path d="M1335.24 1011.09H1400.62" stroke="#405B77" stroke-width="3" stroke-miterlimit="10"/>
</g>
<g clip-path="url(#clip16_77_8)">
<path d="M1490.75 926.846H1488.1C1467.61 926.846 1451 943.458 1451 963.95V995.754C1451 1016.25 1467.61 1032.86 1488.1 1032.86H1490.75C1511.25 1032.86 1527.86 1016.25 1527.86 995.754V963.95C1527.86 943.458 1511.25 926.846 1490.75 926.846Z" fill="#ECAA87"/>
<path d="M1602.01 979.853L1548.16 926L1494.31 979.853L1548.16 1033.71L1602.01 979.853Z" fill="#DF646E"/>
</g>
<g clip-path="url(#clip17_77_8)">
<path d="M283.775 977.216L229.923 923.364L176.07 977.216L229.923 1031.07L283.775 977.216Z" fill="#ECAA87"/>
<path d="M132.364 977.216L186.217 1031.07L240.069 977.216L186.217 923.364L132.364 977.216Z" stroke="#405B77" stroke-width="9" stroke-miterlimit="10"/>
<path d="M209.291 1007.99H160.132" stroke="#405B77" stroke-width="3" stroke-miterlimit="10"/>
<path d="M229.923 990.948H147.322" stroke="#405B77" stroke-width="3" stroke-miterlimit="10"/>
<path d="M236.754 973.901H135.679" stroke="#405B77" stroke-width="3" stroke-miterlimit="10"/>
<path d="M217.487 956.855H152.726" stroke="#405B77" stroke-width="3" stroke-miterlimit="10"/>
<path d="M200.039 939.809H169.771" stroke="#405B77" stroke-width="3" stroke-miterlimit="10"/>
</g>
<defs>
<clipPath id="clip0_77_8">
<rect width="99.8302" height="101.282" fill="white" transform="translate(324 74)"/>
</clipPath>
<clipPath id="clip1_77_8">
<rect width="170.838" height="102.925" fill="white" transform="translate(464 73)"/>
</clipPath>
<clipPath id="clip2_77_8">
<rect width="107.705" height="107.705" fill="white" transform="translate(675 68)"/>
</clipPath>
<clipPath id="clip3_77_8">
<rect width="164.668" height="120.433" fill="white" transform="translate(823 62)"/>
</clipPath>
<clipPath id="clip4_77_8">
<rect width="107.705" height="107.705" fill="white" transform="translate(1028 73)"/>
</clipPath>
<clipPath id="clip5_77_8">
<rect width="108.83" height="110.282" fill="white" transform="translate(1176 72)"/>
</clipPath>
<clipPath id="clip6_77_8">
<rect width="85.8589" height="115.012" fill="white" transform="translate(1325 67)"/>
</clipPath>
<clipPath id="clip7_77_8">
<rect width="151.011" height="107.705" fill="white" transform="translate(1451 73)"/>
</clipPath>
<clipPath id="clip8_77_8">
<rect width="157.775" height="120.433" fill="white" transform="translate(126 64)"/>
</clipPath>
<clipPath id="clip9_77_8">
<rect width="99.8302" height="101.282" fill="white" transform="translate(324 927)"/>
</clipPath>
<clipPath id="clip10_77_8">
<rect width="170.838" height="102.925" fill="white" transform="translate(464 926)"/>
</clipPath>
<clipPath id="clip11_77_8">
<rect width="107.705" height="107.705" fill="white" transform="translate(675 921)"/>
</clipPath>
<clipPath id="clip12_77_8">
<rect width="164.668" height="120.433" fill="white" transform="translate(823 915)"/>
</clipPath>
<clipPath id="clip13_77_8">
<rect width="107.705" height="107.705" fill="white" transform="translate(1028 926)"/>
</clipPath>
<clipPath id="clip14_77_8">
<rect width="108.83" height="110.282" fill="white" transform="translate(1176 925)"/>
</clipPath>
<clipPath id="clip15_77_8">
<rect width="85.8589" height="115.012" fill="white" transform="translate(1325 920)"/>
</clipPath>
<clipPath id="clip16_77_8">
<rect width="151.011" height="107.705" fill="white" transform="translate(1451 926)"/>
</clipPath>
<clipPath id="clip17_77_8">
<rect width="157.775" height="120.433" fill="white" transform="translate(126 917)"/>
</clipPath>
</defs>
</svg>
