<?xml version="1.0" encoding="UTF-8"?><svg id="Layer_2" xmlns="http://www.w3.org/2000/svg" viewBox="0 0 1130.94824 243.93555"><defs><style>.cls-1{fill:#ecaa87;}.cls-2{fill:#df646e;}.cls-3{fill:#425e87;}.cls-4{fill:#243d64;}.cls-5{fill:#98a47f;}</style></defs><g id="Layer_1-2"><path class="cls-4" d="M10.4873,157.30908V52.43506c0-13.6333,7.3418-20.97461,20.97461-20.97461h47.5498c54.87012,0,74.31348,37.50293,74.31348,73.20215s-19.44336,73.70508-74.31348,73.62109H31.46191c-13.75977,0-20.97461-7.34131-20.97461-20.97461ZM110.0752,81.88379c0-10.25684-7.94922-17.72363-18.70898-17.72363-10.73926,0-18.68945,7.4668-18.68945,17.72363,0,10.31982,7.9502,17.78662,18.68945,17.78662,10.75977,0,18.70898-7.4668,18.70898-17.78662Z"/><path class="cls-5" d="M153.09473,152.94629l64.64453-113.20068c7.94922-13.90625,21.28906-13.94824,29.25977,0l64.62305,113.20068c8.47266,14.8291,3.25,25.3374-13.84375,25.3374h-130.83984c-17.0957,0-22.31836-10.4873-13.84375-25.3374ZM238.29395,132.13916c0-10.25635-7.94922-17.72363-18.70898-17.72363-10.74023,0-18.68945,7.46729-18.68945,17.72363,0,10.31982,7.94922,17.78662,18.68945,17.78662,10.75977,0,18.70898-7.4668,18.70898-17.78662Z"/><path class="cls-2" d="M326.15527,157.30908V47.08691c0-16.52832,16.36133-22.50586,29.86914-13.06738l44.80078,31.31543v-12.8999c0-13.6333,7.3418-20.97461,20.97559-20.97461h27.47656c13.63379,0,20.97559,7.34131,20.97559,20.97461v104.87402c0,13.6333-7.3418,20.97461-20.97559,20.97461h-102.14746c-13.63281,0-20.97461-7.34131-20.97461-20.97461ZM395.93848,133.60742c0-10.25635-7.94922-17.72363-18.70898-17.72363-10.73926,0-18.68848,7.46729-18.68848,17.72363,0,10.31982,7.94922,17.78662,18.68848,17.78662,10.75977,0,18.70898-7.4668,18.70898-17.78662Z"/><path class="cls-1" d="M632.40527,178.28369h-7.69727c-6.77539,0-11.45312-2.30713-15.08008-7.86572l-4.56055-6.99902c-9.67578,10.96338-25.21094,18.2207-42.21387,18.2207-44.82324,0-77.9209-32.30127-77.9209-76.97705,0-44.4668,34.39844-76.76758,80.96191-76.76758,19.69629,0,37.22949,5.78906,50.88574,15.81494,5.87109,4.40479,7.63477,13.92725-.50391,18.45752l-7.21484,4.00635c-10.5293,5.85205-16.84375-.96484-26.4707-.96484-10.73926,0-18.68848,7.4668-18.68848,17.72363,0,10.31934,7.94922,17.78662,18.68848,17.78662,7.21484,0,12.29102-3.85938,16.31836-8.70459,4.80273-5.76807,8.99805-7.90771,16.67383-7.90771h14.70508c12.20703,0,14.4707,9.50195,14.4707,20.55566l.08398,59.69385c.02148,9.29199-3.87891,13.92725-12.4375,13.92725Z"/><path class="cls-3" d="M703.48535,157.30908v-24.01611c0-14.68262,4.61523-20.24072,18.14453-20.24072h8.07422c5.32812,0,4.80469-3.41895,1.0293-7.71875l-5.72656-6.52295c-9.35547-10.65527-13.78125-21.20557-13.73828-30.83301.08398-21.49902,15.26953-36.49609,45.36719-36.49609h53.06641c13.63281,0,20.97461,7.34131,20.97461,20.97461v23.28223c0,14.55664-5.24414,20.97461-17.09375,20.97461h-8.17969c-4.86719,0-3.92383,3.25098-.73438,7.00586l6.125,7.23584c9.20703,10.88623,13.82227,21.28955,13.73828,30.896-.18945,21.52002-15.35352,36.43311-45.87305,36.43311h-54.19727c-13.63477,0-20.97656-7.34131-20.97656-20.97461Z"/><path class="cls-5" d="M847.37012,157.30908V52.43506c0-13.6333,7.33984-20.97461,20.97461-20.97461h84.73828c13.63281,0,20.97461,7.34131,20.97461,20.97461v6.92188c0,13.63379-7.3418,20.97461-20.97461,20.97461h-5.66406v6.50244c0,13.6333-7.3418,20.97461-20.97461,20.97461h-9.64844v10.80176h36.28711c13.63281,0,20.97461,7.34131,20.97461,20.9751v17.72363c0,13.6333-7.3418,20.97461-20.97461,20.97461h-84.73828c-13.63477,0-20.97461-7.34131-20.97461-20.97461Z"/><path class="cls-1" d="M1020.20215,157.30908v-38.69873h-16.46484c-10.69727,0-16.46484-7.34082-16.46484-20.97461v-45.20068c0-13.6333,7.3418-20.97461,20.97461-20.97461h93.33789c13.63281,0,20.97461,7.34131,20.97461,20.97461v45.20068c0,13.63379-5.76758,20.97461-16.46484,20.97461h-16.4668v38.69873c0,13.6333-7.33984,20.97461-20.97461,20.97461h-27.47656c-13.63281,0-20.97461-7.34131-20.97461-20.97461Z"/></g></svg>